<svg xmlns="http://www.w3.org/2000/svg" shape-rendering="geometricPrecision" text-rendering="geometricPrecision" image-rendering="optimizeQuality" fill-rule="evenodd" clip-rule="evenodd" viewBox="0 0 512 440.803"><path fill="#D83A25" fill-rule="nonzero" d="M52.464 177.026c-6.986-14.279-9.492-27.637-8.569-39.804 1.06-13.979 6.644-26.362 15.147-36.753a1.748 1.748 0 012.455-.246c.528.433.737 1.113.597 1.739-2.112 13.234-3.45 26-2.28 37.693 1.115 11.175 4.541 21.407 11.81 30.189l.734-.291c1.615-.64 2.479-.978 3.594-.646l.108.036c1.155.388 1.737 1.289 2.926 3.126l.694 1.075c4.681 7.144 8.143 14.913 9.782 23.588 1.511 7.995 1.477 16.76-.566 26.51l4.327-.832a1.745 1.745 0 012.027 1.323c2.952 9.685 7.452 17.548 13.424 23.662 5.98 6.122 13.466 10.516 22.38 13.262.72.222 1.192.871 1.228 1.583l.725 15.227a1.744 1.744 0 01-1.659 1.823l-.344-.018c-12.468-1.163-24.243-4.296-35.2-9.71-10.991-5.429-21.161-13.153-30.384-23.488a1.742 1.742 0 01-.04-2.275l3.888-4.969c-.964-11.039-2.924-20.495-5.673-28.654-2.796-8.293-6.424-15.283-10.673-21.273l-.07-.106c-1.071-1.505-2.011-2.588-2.701-3.388-1.191-1.379-1.858-2.149-1.824-3.398.04-1.503 1.067-2.373 3.371-4.329l.766-.656zm415.641-39.804c.923 12.167-1.583 25.525-8.569 39.804l.766.656c2.304 1.956 3.331 2.826 3.371 4.329.034 1.249-.633 2.019-1.824 3.398-.69.8-1.63 1.883-2.701 3.388l-.07.106c-4.249 5.99-7.877 12.98-10.673 21.273-2.749 8.159-4.709 17.615-5.673 28.654l3.888 4.969a1.742 1.742 0 01-.04 2.275c-9.223 10.335-19.393 18.059-30.384 23.488-10.957 5.414-22.732 8.547-35.2 9.71l-.344.018a1.744 1.744 0 01-1.659-1.823l.725-15.227a1.749 1.749 0 011.228-1.583c8.914-2.746 16.4-7.14 22.38-13.262 5.972-6.114 10.472-13.977 13.424-23.662a1.745 1.745 0 012.027-1.323l4.327.832c-2.043-9.75-2.077-18.515-.566-26.51 1.639-8.675 5.101-16.444 9.782-23.588l.694-1.075c1.189-1.837 1.771-2.738 2.926-3.126l.108-.036c1.115-.332 1.979.006 3.594.646l.734.291c7.269-8.782 10.695-19.014 11.81-30.189 1.17-11.693-.168-24.459-2.28-37.693a1.753 1.753 0 01.597-1.739 1.748 1.748 0 012.455.246c8.503 10.391 14.087 22.774 15.147 36.753zm-92.096 166.814l5.175-12.934a1.745 1.745 0 012.135-1.015c6.787 2.111 13.651 1.821 20.575-.538 7.047-2.4 14.187-6.946 21.395-13.284a1.747 1.747 0 012.872 1.004l1.517 8.495c7.344-2.437 13.947-6.264 19.29-11.31 5.499-5.196 9.676-11.702 11.969-19.338a1.745 1.745 0 011.805-1.241l6.782.298c8.746-6.82 16.737-14.307 23.18-23.13 6.536-8.948 11.508-19.304 14.097-31.784a1.744 1.744 0 013.418.02c3.3 16.731 1.905 31.19-3.298 43.797-4.971 12.041-13.4 22.35-24.515 31.296l3.462 3.462c.681.68.681 1.788 0 2.469l-.068.064c-7.164 7.395-15.523 13.066-25.037 17.042-9.102 3.805-19.268 6.064-30.463 6.806l-.624 7.814a1.747 1.747 0 01-1.597 1.604c-9.56.805-18.595.575-27.114-.638-8.54-1.217-16.557-3.426-24.063-6.578a1.749 1.749 0 01-.935-2.287l.042-.094zm-10.964 25.095l5.707-11.253a1.745 1.745 0 012.342-.772l.302.192c6.055 4.62 13.139 7.744 21.008 9.713 7.965 1.992 16.735 2.804 26.06 2.782.961 0 1.742.781 1.742 1.741l.005 5.616c8.372 1.174 15.396 4.182 20.543 9.717 5.335 5.738 8.581 14.131 9.128 25.933 6.4 7.126 9.593 18.993 9.155 31.677-.422 12.225-4.208 25.283-11.733 35.613a1.74 1.74 0 01-3.142-1.1c.508-11.193.702-21.779-.012-31.269-.677-8.958-2.165-16.909-4.967-23.403l-5.153-.678a1.741 1.741 0 01-1.503-1.515c-1.017-6.284-3.146-11.969-6.366-17.05-2.928-4.621-6.764-8.752-11.489-12.394-.572.685-1.287 1.273-2.127 1.761-2.34 1.361-5.714 1.945-9.644 1.727-3.763-.206-8.105-1.146-12.578-2.825-9.946-3.737-20.651-11.189-27.247-22.522a1.746 1.746 0 01-.031-1.691zm-223.797-11.253l5.707 11.253c.271.512.281 1.15-.031 1.691-6.596 11.333-17.301 18.785-27.247 22.522-4.473 1.679-8.815 2.619-12.578 2.825-3.93.218-7.304-.366-9.644-1.727-.84-.488-1.555-1.076-2.127-1.761-4.725 3.642-8.561 7.773-11.489 12.394-3.22 5.081-5.349 10.766-6.366 17.05a1.741 1.741 0 01-1.503 1.515l-5.153.678c-2.802 6.494-4.29 14.445-4.967 23.403-.714 9.49-.52 20.076-.008 31.269a1.74 1.74 0 01-3.146 1.1c-7.525-10.33-11.311-23.388-11.733-35.613-.438-12.684 2.755-24.551 9.155-31.677.547-11.802 3.793-20.195 9.128-25.933 5.147-5.535 12.171-8.543 20.543-9.717v-5.616a1.75 1.75 0 011.747-1.741c9.325.022 18.095-.79 26.06-2.782 7.869-1.969 14.953-5.093 21.008-9.713l.302-.192a1.745 1.745 0 012.342.772zm-10.432-26.776l5.217 13.028a1.749 1.749 0 01-.935 2.287c-7.506 3.152-15.523 5.361-24.063 6.578-8.519 1.213-17.554 1.443-27.114.638a1.747 1.747 0 01-1.597-1.604l-.624-7.814c-11.195-.742-21.361-3.001-30.463-6.806-9.514-3.976-17.873-9.647-25.037-17.042l-.068-.064a1.747 1.747 0 010-2.469l3.462-3.462c-11.115-8.946-19.544-19.255-24.515-31.296-5.203-12.607-6.598-27.066-3.3-43.797a1.745 1.745 0 013.42-.02c2.589 12.48 7.561 22.836 14.097 31.784 6.443 8.823 14.434 16.31 23.18 23.13l6.782-.298a1.745 1.745 0 011.805 1.241c2.293 7.636 6.47 14.142 11.969 19.338 5.343 5.046 11.946 8.873 19.29 11.31l1.517-8.495a1.747 1.747 0 012.872-1.004c7.208 6.338 14.348 10.884 21.395 13.284 6.924 2.359 13.788 2.649 20.575.536a1.748 1.748 0 012.135 1.017z"/><path fill="#D83A25" d="M169.399 0c-14.825 30.995-22.674 57.733-21.611 79.021 25.582-13.167 43.711-33.799 53.859-57.364 14.545 39.394-17.325 78.965-49.454 90.363 3.704 20.199 4.206 36.162-4.775 46.473l43.284 29.522-25.778 31.037c-22.279-13.142-34.293-33.543-44.759-55.544-25.744-14.483-22.103-69.691-13.43-93.825C117.523 39.66 140.648 13.993 169.399 0zM342.603 0c14.825 30.995 22.674 57.733 21.611 79.021-25.582-13.167-43.711-33.799-53.859-57.364-14.545 39.394 17.325 78.965 49.454 90.363-3.704 20.199-4.206 36.162 4.775 46.473l-47.541 32.229 30.035 28.33c22.279-13.142 34.292-33.543 44.759-55.544 25.744-14.483 22.103-69.691 13.43-93.825C394.479 39.66 371.354 13.993 342.603 0z"/><path fill="#D83A25" fill-rule="nonzero" d="M277.839 173.842l14.607 2.068c4.927.23 9.846.622 14.749 1.156 4.921.536 9.83 1.223 14.713 2.043 4.873.819 9.784 1.788 14.715 2.89a320.44 320.44 0 0114.829 3.704l.957.294c4.036 1.501 7.939 3.215 11.669 5.166 3.742 1.959 7.306 4.154 10.659 6.618a73.856 73.856 0 019.645 8.459 72.761 72.761 0 018.27 10.404 78.94 78.94 0 015.263 9.356 87.338 87.338 0 014.202 10.582 104.132 104.132 0 013.044 11.726c.833 4.15 1.485 8.553 1.931 13.204.034.398.046.794.03 1.178-.014.391-.06.785-.128 1.169-1.419 7.941-3.154 15.557-5.349 22.802-2.196 7.246-4.855 14.1-8.117 20.506-3.368 6.614-7.384 12.776-12.2 18.425-4.811 5.646-10.43 10.791-17.006 15.378-19.26 13.436-37.088 23.478-53.883 30.49-16.83 7.025-32.638 11.017-47.829 12.342-15.401 1.341-30.098-.036-44.509-3.758-14.393-3.719-28.498-9.776-42.734-17.791a186.932 186.932 0 01-20.487-13.366 180.5 180.5 0 01-16.624-14.095c-8.125-7.791-14.651-15.793-19.696-23.858-5.303-8.478-8.981-17.043-11.179-25.522-2.337-9.017-3.01-17.915-2.195-26.506.845-8.92 3.29-17.513 7.132-25.58 3.703-7.77 8.713-15.057 14.837-21.665 6.134-6.62 13.392-12.566 21.591-17.652 9.907-6.154 21.216-11.065 33.577-14.399 11.841-3.194 24.665-4.947 38.155-4.969l19.402-1.762c3.12-.686 6.26-1.19 9.414-1.494a77.992 77.992 0 019.51-.342c3.186.079 6.37.354 9.54.82 3.16.466 6.33 1.126 9.495 1.979z"/><path fill="#EA5B54" d="M291.576 184.559l-15.444-2.188c-11.763-3.258-23.374-3.526-34.849-.912l-20.407 1.851c-88.581-.082-145.78 78.885-76.602 145.226 9.401 9.016 20.975 18.045 35.344 26.134 54.036 30.419 105.365 31.078 179.741-20.806 23.725-16.551 33.688-41.315 39.098-71.535-1.669-17.262-6.256-30.585-13.05-40.926-8.809-13.41-21.331-21.809-36.024-27.278-19.27-5.304-38.537-8.704-57.807-9.566z"/><path fill="#D44138" d="M218.019 108.799c12.62 0 22.853 10.23 22.853 22.853 0 12.166-9.507 22.11-21.495 22.812-.441 20.094 2.353 38.8 11.337 55.185h-25.425c-6.721-21.857-6.551-41.993-1.319-59.971-5.36-4.182-8.805-10.701-8.805-18.026 0-12.623 10.231-22.853 22.854-22.853zM293.981 108.799c-12.62 0-22.853 10.23-22.853 22.853 0 12.166 9.507 22.11 21.498 22.812.441 20.094-2.356 38.8-11.34 55.182h25.422c6.727-21.856 6.556-41.993 1.322-59.968 5.36-4.185 8.805-10.701 8.805-18.026 0-12.623-10.231-22.853-22.854-22.853z"/><path fill="#fff" d="M293.982 118.649c-7.178 0-12.999 5.821-12.999 13.004 0 7.177 5.821 12.998 12.999 12.998 7.182 0 12.998-5.821 12.998-12.998 0-7.183-5.816-13.004-12.998-13.004zM218.018 118.649c7.178 0 12.999 5.821 12.999 13.004 0 7.177-5.821 12.998-12.999 12.998-7.182 0-12.998-5.821-12.998-12.998 0-7.183 5.816-13.004 12.998-13.004z"/><path d="M293.981 123.419a6.817 6.817 0 10.003 13.633 6.817 6.817 0 00-.003-13.633zM218.019 126.781a6.817 6.817 0 000 13.633 6.814 6.814 0 006.815-6.815 6.815 6.815 0 00-6.815-6.818z"/></svg>